<svg xmlns="http://www.w3.org/2000/svg" xmlns:xlink="http://www.w3.org/1999/xlink" width="500" zoomAndPan="magnify" viewBox="0 0 375 374.999991" height="500" preserveAspectRatio="xMidYMid meet" version="1.0"><defs><g/><clipPath id="603adb1a20"><path d="M 20 20 L 355 20 L 355 355 L 20 355 Z M 20 20 " clip-rule="nonzero"/></clipPath><clipPath id="503ecc72db"><path d="M 187.496094 20.972656 L 354.019531 187.496094 L 187.496094 354.019531 L 20.972656 187.496094 Z M 187.496094 20.972656 " clip-rule="nonzero"/></clipPath><clipPath id="e60cb13bf2"><path d="M 187.496094 20.972656 L 354.019531 187.496094 L 187.496094 354.019531 L 20.972656 187.496094 Z M 187.496094 20.972656 " clip-rule="nonzero"/></clipPath><clipPath id="4ba5560c66"><path d="M 187.496094 20.972656 L 354.019531 187.496094 L 187.496094 354.019531 L 20.972656 187.496094 Z M 187.496094 20.972656 " clip-rule="nonzero"/></clipPath><clipPath id="ee693d3372"><path d="M 53 49 L 342 49 L 342 338 L 53 338 Z M 53 49 " clip-rule="nonzero"/></clipPath><clipPath id="ad5e86b2f3"><path d="M 341.644531 105.15625 L 109.210938 337.589844 L 53.804688 282.1875 L 286.242188 49.75 Z M 341.644531 105.15625 " clip-rule="nonzero"/></clipPath><clipPath id="a0ae650bf4"><path d="M 341.644531 105.15625 L 109.300781 337.5 L 53.898438 282.097656 L 286.242188 49.75 Z M 341.644531 105.15625 " clip-rule="nonzero"/></clipPath><clipPath id="d21eea0b53"><path d="M 47 37 L 338 37 L 338 328 L 47 328 Z M 47 37 " clip-rule="nonzero"/></clipPath><clipPath id="711c715622"><path d="M 105.152344 37.5 L 337.570312 269.917969 L 279.691406 327.796875 L 47.273438 95.378906 Z M 105.152344 37.5 " clip-rule="nonzero"/></clipPath><clipPath id="c1c0035955"><path d="M 105.152344 37.5 L 337.496094 269.84375 L 279.617188 327.722656 L 47.273438 95.378906 Z M 105.152344 37.5 " clip-rule="nonzero"/></clipPath></defs><rect x="-37.5" width="450" fill="#ffffff" y="-37.499999" height="449.999989" fill-opacity="1"/><rect x="-37.5" width="450" fill="#ffffff" y="-37.499999" height="449.999989" fill-opacity="1"/><g clip-path="url(#603adb1a20)"><g clip-path="url(#503ecc72db)"><g clip-path="url(#e60cb13bf2)"><g clip-path="url(#4ba5560c66)"><path stroke-linecap="butt" transform="matrix(0.53033, 0.53033, -0.53033, 0.53033, 187.496051, 20.97241)" fill="none" stroke-linejoin="miter" d="M 0.000271972 0.000192093 L 313.999896 0.000192093 L 313.999896 313.999816 L 0.000271972 313.999816 Z M 0.000271972 0.000192093 " stroke="#0a0a0a" stroke-width="10" stroke-opacity="1" stroke-miterlimit="4"/></g></g></g></g><g clip-path="url(#ee693d3372)"><g clip-path="url(#ad5e86b2f3)"><g clip-path="url(#a0ae650bf4)"><path fill="#ffffff" d="M 341.644531 105.15625 L 109.210938 337.589844 L 53.804688 282.1875 L 286.242188 49.75 Z M 341.644531 105.15625 " fill-opacity="1" fill-rule="nonzero"/></g></g></g><g clip-path="url(#d21eea0b53)"><g clip-path="url(#711c715622)"><g clip-path="url(#c1c0035955)"><path fill="#ffffff" d="M 105.152344 37.5 L 337.570312 269.917969 L 279.691406 327.796875 L 47.273438 95.378906 Z M 105.152344 37.5 " fill-opacity="1" fill-rule="nonzero"/></g></g></g><g fill="#2b2b2b" fill-opacity="1"><g transform="translate(85.149466, 166.664452)"><g><path d="M 19.6875 -8.316406 C 23.265625 -18.382812 24.71875 -29.039062 27.886719 -39.253906 C 30.164062 -26.671875 30.285156 -13.792969 33.007812 -1.273438 C 33.65625 1.71875 34.425781 9.769531 38.71875 10.300781 C 43.128906 10.835938 45.410156 4.175781 46.359375 1.09375 C 50.472656 -12.285156 51.0625 -27.175781 51.566406 -41.027344 C 52.128906 -56.394531 51.480469 -71.757812 49.761719 -87.03125 C 49.554688 -88.660156 46.980469 -88.6875 47.15625 -87.03125 C 49.96875 -62.164062 50.207031 -36.589844 46.476562 -11.8125 C 46.0625 -8.941406 45.527344 -6.097656 44.847656 -3.316406 C 44.316406 -1.007812 43.605469 3.550781 41.828125 5.179688 C 37.359375 9.324219 36.5 2.28125 35.847656 -0.414062 C 35.199219 -3.257812 34.664062 -6.128906 34.25 -9 C 32.472656 -20.808594 32.148438 -32.828125 29.425781 -44.523438 C 29.128906 -45.855469 27.351562 -45.617188 26.9375 -44.523438 C 23.800781 -36.175781 22.203125 -27.441406 20.070312 -18.855469 C 19.003906 -14.59375 17.820312 -10.332031 16.132812 -6.277344 C 15.628906 -5.03125 15.066406 -3.789062 14.476562 -2.605469 C 13.527344 -0.738281 12.523438 1.570312 11.128906 1.390625 C 9.886719 1.273438 9.355469 -0.886719 8.878906 -2.8125 C 8.464844 -4.558594 8.199219 -6.277344 8.023438 -8.023438 C 7.105469 -17.4375 7.726562 -27.144531 8.761719 -36.5 C 9.324219 -41.796875 10.183594 -47.066406 11.25 -52.308594 C 12.019531 -56.066406 12.550781 -61.335938 15.097656 -64.5625 C 15.1875 -64.355469 15.273438 -64.148438 15.363281 -63.941406 C 15.363281 -62.253906 17.96875 -62.253906 17.9375 -63.941406 C 17.9375 -65.597656 17.554688 -66.515625 16.398438 -67.730469 C 15.898438 -68.261719 15.097656 -68.144531 14.5625 -67.730469 C 10.6875 -64.679688 10.066406 -59.117188 9.089844 -54.585938 C 7.726562 -48.371094 6.75 -42.035156 6.070312 -35.699219 C 5.386719 -29.1875 5.0625 -22.644531 5.089844 -16.132812 C 5.152344 -10.6875 4.945312 -3.757812 7.429688 1.242188 C 12.167969 10.863281 18.324219 -4.527344 19.6875 -8.316406 Z M 19.6875 -8.316406 "/></g></g></g><g fill="#2b2b2b" fill-opacity="1"><g transform="translate(143.168226, 166.664452)"><g><path d="M 24.125 -33.511719 C 23.621094 -31.320312 19.539062 -22.410156 16.695312 -23.445312 C 13.765625 -24.480469 14.773438 -34.8125 13.824219 -37.773438 C 13.410156 -39.015625 11.722656 -38.988281 11.308594 -37.773438 C 9.945312 -33.746094 8.734375 -29.632812 7.132812 -25.722656 C 6.511719 -24.183594 4.527344 -19.0625 1.804688 -20.78125 C 0.621094 -21.519531 1.035156 -25.308594 1.125 -26.613281 C 1.421875 -30.785156 2.339844 -34.960938 3.820312 -38.898438 C 4.589844 -41 5.535156 -43.25 6.75 -45.144531 C 9.296875 -49.082031 15.898438 -48.605469 15.039062 -42.804688 C 14.800781 -41.175781 17.316406 -40.464844 17.554688 -42.125 C 18.324219 -47.363281 13.914062 -52.277344 8.4375 -50.117188 C 2.25 -47.660156 -0.0898438 -36.410156 -1.007812 -30.726562 C -1.507812 -27.53125 -2.871094 -16.25 3.34375 -17.4375 C 6.097656 -17.96875 7.992188 -21.3125 9.058594 -23.59375 C 10.183594 -26.050781 11.070312 -28.625 11.898438 -31.230469 C 12.195312 -26.375 12.757812 -20.691406 16.902344 -20.691406 C 21.667969 -20.691406 25.722656 -28.980469 26.640625 -32.828125 C 26.996094 -34.457031 24.511719 -35.136719 24.125 -33.511719 Z M 24.125 -33.511719 "/></g></g></g><g fill="#2b2b2b" fill-opacity="1"><g transform="translate(168.507031, 166.664452)"><g><path d="M -3.136719 13.734375 C 1.09375 16.519531 2.8125 8.644531 3.433594 6.246094 C 5.980469 -3.257812 7.933594 -13.824219 8.050781 -24.097656 C 10.597656 -27.292969 13.585938 -29.957031 17.109375 -31.261719 C 18.679688 -31.824219 18 -34.339844 16.429688 -33.746094 C 13.292969 -32.59375 10.480469 -30.578125 8.023438 -28.0625 C 7.902344 -31.46875 7.578125 -34.8125 6.984375 -38.070312 C 6.511719 -40.671875 5.476562 -49.554688 0.949219 -48.636719 C -2.902344 -47.835938 -3.640625 -41.5625 -2.25 -38.71875 C -1.507812 -37.210938 0.710938 -38.542969 -0.03125 -40.023438 C -0.503906 -41 -0.472656 -44.136719 0.5625 -44.964844 C 2.132812 -46.210938 2.546875 -44.640625 2.960938 -43.398438 C 3.613281 -41.445312 4.113281 -39.429688 4.46875 -37.386719 C 5.210938 -33.273438 5.417969 -29.097656 5.300781 -24.925781 C 0.117188 -18.144531 -3.226562 -9.175781 -4.855469 -2.132812 C -5.742188 1.863281 -7.371094 10.921875 -3.136719 13.734375 Z M -2.902344 1.332031 C -2.308594 -2.515625 -1.125 -6.304688 0.296875 -9.886719 C 1.507812 -12.9375 3.078125 -16.398438 5.0625 -19.6875 C 4.5 -11.722656 3.257812 -3.699219 1.332031 4.027344 C 1.09375 4.945312 0.859375 6.15625 0.53125 7.074219 C -0.0898438 8.761719 -1.09375 11.277344 -2.722656 9.296875 C -3.671875 8.109375 -3.078125 2.574219 -2.902344 1.332031 Z M -0.5625 -54.527344 C -0.917969 -54.378906 -1.273438 -54.230469 -1.628906 -54.054688 C -2.28125 -53.789062 -2.425781 -52.839844 -2.101562 -52.277344 C -1.71875 -51.625 -0.976562 -51.539062 -0.324219 -51.832031 C 0.03125 -51.980469 0.386719 -52.128906 0.738281 -52.308594 C 1.390625 -52.574219 1.539062 -53.519531 1.214844 -54.082031 C 0.828125 -54.734375 0.0898438 -54.824219 -0.5625 -54.527344 Z M -0.5625 -54.527344 "/></g></g></g><g fill="#2b2b2b" fill-opacity="1"><g transform="translate(185.587044, 166.664452)"><g><path d="M 12.582031 -33.304688 C 11.25 -30.757812 9.769531 -28.269531 8.050781 -25.960938 C 7.195312 -24.777344 5.625 -22.351562 4.113281 -21.90625 C 0.621094 -20.839844 1.570312 -27.382812 1.777344 -29.574219 C 2.070312 -32.59375 4.46875 -39.578125 1.597656 -42.066406 C -0.800781 -44.167969 -3.550781 -41 -4.527344 -38.988281 C -5.269531 -37.476562 -3.019531 -36.175781 -2.308594 -37.683594 C -0.175781 -39.550781 0.621094 -39.402344 0.0898438 -37.269531 C 0.03125 -36.5 -0.0585938 -35.730469 -0.148438 -34.960938 C -0.324219 -33.421875 -0.5625 -31.882812 -0.738281 -30.34375 C -1.035156 -27.765625 -1.390625 -24.777344 -0.710938 -22.171875 C -0.117188 -20.011719 1.421875 -18.5 3.789062 -18.976562 C 8.910156 -19.980469 12.640625 -27.855469 14.832031 -32 C 15.601562 -33.449219 13.351562 -34.78125 12.582031 -33.304688 Z M -1.863281 -48.339844 C -2.21875 -48.191406 -2.574219 -48.042969 -2.929688 -47.867188 C -3.582031 -47.601562 -3.730469 -46.652344 -3.402344 -46.089844 C -3.019531 -45.441406 -2.28125 -45.351562 -1.628906 -45.648438 C -1.273438 -45.796875 -0.917969 -45.941406 -0.5625 -46.121094 C 0.0898438 -46.386719 0.238281 -47.335938 -0.0898438 -47.898438 C -0.472656 -48.546875 -1.214844 -48.636719 -1.863281 -48.339844 Z M -1.863281 -48.339844 "/></g></g></g><g fill="#2b2b2b" fill-opacity="1"><g transform="translate(199.3813, 166.664452)"><g><path d="M 18.175781 -7.132812 C 19.6875 -6.453125 21.019531 -8.703125 19.476562 -9.355469 C 15.898438 -10.953125 16.902344 -20.25 16.992188 -23.414062 C 17.140625 -27.234375 17.4375 -31.023438 17.761719 -34.8125 C 17.851562 -35.878906 17.9375 -36.945312 18.027344 -38.007812 C 19.566406 -41.117188 20.988281 -44.316406 22.378906 -47.421875 C 25.308594 -54.082031 27.972656 -60.890625 30.195312 -67.847656 C 31.46875 -71.875 33.242188 -76.523438 33.125 -80.816406 C 33.007812 -85.285156 29.632812 -87.328125 26.554688 -83.6875 C 22.320312 -78.652344 20.632812 -70.425781 19.242188 -64.207031 C 17.375 -55.859375 16.3125 -47.335938 15.511719 -38.808594 C 13.410156 -34.425781 11.070312 -29.957031 7.902344 -26.496094 C 6.984375 -25.546875 5.417969 -23.742188 4.085938 -23.414062 C -2.101562 -21.847656 -0.148438 -28.476562 0.5625 -30.757812 C 1.480469 -33.65625 9.652344 -46.773438 12.402344 -38.511719 C 12.90625 -36.945312 15.421875 -37.625 14.890625 -39.195312 C 12.699219 -45.796875 5.445312 -43.25 2.132812 -39.132812 C -0.917969 -35.40625 -5.359375 -26.582031 -1.804688 -21.964844 C 2.21875 -16.695312 9.148438 -23.652344 11.605469 -27.027344 C 12.789062 -28.683594 13.914062 -30.429688 14.949219 -32.238281 C 14.535156 -27.175781 14.089844 -22.023438 14.476562 -16.960938 C 14.710938 -13.734375 14.773438 -8.644531 18.175781 -7.132812 Z M 20.898438 -59.324219 C 22.082031 -65.570312 23.5625 -71.90625 26.140625 -77.707031 C 26.96875 -79.542969 29.78125 -85.550781 30.519531 -80.609375 C 30.757812 -79.097656 30.074219 -77.144531 29.722656 -75.695312 C 27.324219 -65.480469 23.296875 -55.445312 18.855469 -45.882812 C 19.390625 -50.382812 20.039062 -54.882812 20.898438 -59.324219 Z M 20.898438 -59.324219 "/></g></g></g><g fill="#2b2b2b" fill-opacity="1"><g transform="translate(125.41203, 280.418902)"><g><path d="M 6.171875 -24.859375 C 6.273438 -25.921875 6.371094 -26.980469 6.441406 -28.039062 C 7.507812 -41.171875 8.792969 -54.320312 9.3125 -67.519531 C 9.550781 -74.179688 9.597656 -80.863281 9.324219 -87.53125 C 9.25 -89.445312 9.789062 -94.140625 6.847656 -94.746094 C 0.898438 -95.917969 2.296875 -81.644531 2.554688 -79.261719 C 2.75 -77.480469 5.523438 -77.632812 5.328125 -79.414062 C 5.101562 -81.796875 3.789062 -89.367188 6.050781 -91.25 C 6.203125 -91.386719 6.605469 -85.84375 6.636719 -84.664062 C 6.726562 -81.921875 6.746094 -79.203125 6.707031 -76.453125 C 6.648438 -65.355469 5.824219 -54.25 4.933594 -43.171875 C 4.433594 -37.230469 3.929688 -31.289062 3.460938 -25.316406 C 2.371094 -25.351562 1.269531 -25.070312 0.253906 -24.308594 C -0.789062 -23.546875 -0.425781 -22.128906 0.714844 -21.746094 C 1.5625 -21.472656 2.367188 -21.355469 3.136719 -21.335938 C 2.957031 -18.769531 2.8125 -16.234375 2.664062 -13.703125 C 2.128906 -4.273438 1.917969 5.199219 5.667969 14.039062 C 6.148438 15.226562 7.554688 15.246094 8.234375 14.21875 C 9.445312 12.425781 9.585938 10.914062 9.023438 8.867188 C 8.671875 7.671875 7.363281 7.710938 6.699219 8.421875 C 4.097656 -1.058594 4.925781 -11.492188 5.851562 -21.390625 C 8.4375 -19.679688 11.054688 -16.273438 11.953125 -15.109375 C 13.714844 -12.714844 15.167969 -10.109375 16.746094 -7.574219 C 19.796875 -2.757812 23.355469 2.097656 28.816406 4.320312 C 39.449219 8.6875 46.109375 0.234375 48.171875 -9.28125 C 48.554688 -11.027344 45.808594 -11.609375 45.421875 -9.863281 C 44.027344 -3.328125 40.5 4.027344 32.457031 2.523438 C 25.351562 1.21875 21.339844 -5.464844 17.863281 -11.121094 C 16.28125 -13.6875 12.660156 -19.625 8.609375 -22.980469 C 11.542969 -24.835938 14.019531 -28.011719 16.046875 -30.648438 C 20.460938 -36.390625 24.273438 -42.609375 27.363281 -49.175781 C 33.769531 -62.796875 37.042969 -77.648438 37.136719 -92.710938 C 37.132812 -94.5 34.328125 -94.347656 34.332031 -92.554688 C 34.285156 -79.542969 31.734375 -66.648438 26.742188 -54.609375 C 24.371094 -48.976562 21.535156 -43.546875 18.175781 -38.4375 C 15.699219 -34.65625 11.285156 -27.15625 6.171875 -24.859375 Z M 6.171875 -24.859375 "/></g></g></g><g fill="#2b2b2b" fill-opacity="1"><g transform="translate(168.754767, 278.023413)"><g><path d="M 16.183594 -31.648438 C 17.910156 -29.886719 18.726562 -27.3125 21.148438 -26.296875 C 27.332031 -23.726562 31.730469 -32.058594 34.210938 -36.320312 C 35.117188 -37.871094 32.617188 -39.140625 31.710938 -37.589844 C 30.3125 -35.175781 28.796875 -32.472656 26.730469 -30.535156 C 23.265625 -27.273438 21.316406 -29.628906 19.109375 -32.511719 C 17.109375 -35.152344 14.621094 -38.5625 11.019531 -36.636719 C 7.386719 -34.675781 6.21875 -29.210938 4.03125 -25.988281 C 2.996094 -24.460938 1.519531 -22.269531 -0.152344 -24.703125 C -0.914062 -25.8125 -0.792969 -28.246094 -0.835938 -29.554688 C -0.917969 -31.054688 -0.902344 -32.554688 -0.859375 -34.0625 C 5.9375 -45.847656 10.632812 -59.214844 13.738281 -72.429688 C 14.28125 -74.792969 19.101562 -95.101562 10.652344 -92.398438 C 7.949219 -91.546875 6.558594 -87.21875 5.628906 -84.960938 C 4.082031 -81.167969 2.925781 -77.203125 1.898438 -73.214844 C -0.667969 -63.546875 -2.324219 -53.640625 -3.117188 -43.65625 C -3.367188 -40.667969 -3.519531 -37.6875 -3.613281 -34.707031 C -3.636719 -34.546875 -3.660156 -34.417969 -3.621094 -34.292969 C -3.671875 -32.914062 -3.660156 -31.542969 -3.648438 -30.167969 C -3.59375 -27.421875 -3.546875 -23.714844 -1.542969 -21.554688 C 1.996094 -17.691406 5.742188 -23.332031 7.40625 -26.207031 C 8.25 -27.691406 8.933594 -29.265625 9.777344 -30.75 C 10.125 -31.375 10.6875 -32.78125 11.304688 -33.199219 C 13.886719 -35.035156 15 -32.859375 16.183594 -31.648438 Z M -0.527344 -40.792969 C -0.03125 -48.589844 1.007812 -56.382812 2.597656 -64.046875 C 4.042969 -70.902344 5.378906 -79.671875 9.035156 -85.789062 C 13.046875 -92.5 13.074219 -85.628906 12.710938 -82.316406 C 12.246094 -78.039062 11.265625 -73.796875 10.152344 -69.640625 C 7.535156 -59.714844 4.089844 -49.808594 -0.546875 -40.566406 C -0.550781 -40.632812 -0.554688 -40.695312 -0.527344 -40.792969 Z M -0.527344 -40.792969 "/></g></g></g><g fill="#2b2b2b" fill-opacity="1"><g transform="translate(203.556434, 276.099977)"><g><path d="M 23.980469 -37.511719 C 23.570312 -35.125 19.699219 -25.289062 16.578125 -26.234375 C 13.363281 -27.175781 13.832031 -38.359375 12.636719 -41.488281 C 12.117188 -42.800781 10.300781 -42.671875 9.925781 -41.339844 C 8.699219 -36.921875 7.636719 -32.421875 6.148438 -28.121094 C 5.574219 -26.425781 3.742188 -20.792969 0.707031 -22.480469 C -0.609375 -23.207031 -0.390625 -27.308594 -0.371094 -28.71875 C -0.300781 -33.230469 0.4375 -37.777344 1.796875 -42.105469 C 2.5 -44.414062 3.386719 -46.890625 4.582031 -49.003906 C 7.085938 -53.394531 14.222656 -53.277344 13.644531 -46.980469 C 13.484375 -45.210938 16.234375 -44.597656 16.390625 -46.394531 C 16.910156 -52.082031 11.867188 -57.109375 6.101562 -54.457031 C -0.414062 -51.445312 -2.261719 -39.195312 -2.910156 -33.019531 C -3.261719 -29.550781 -4.058594 -17.324219 2.5625 -18.96875 C 5.496094 -19.707031 7.335938 -23.421875 8.347656 -25.9375 C 9.414062 -28.652344 10.214844 -31.476562 10.953125 -34.332031 C 11.5625 -29.121094 12.503906 -23.035156 16.964844 -23.28125 C 22.097656 -23.566406 25.96875 -32.730469 26.730469 -36.929688 C 27.015625 -38.703125 24.296875 -39.289062 23.980469 -37.511719 Z M 23.980469 -37.511719 "/></g></g></g><g fill="#2b2b2b" fill-opacity="1"><g transform="translate(230.836862, 274.592228)"><g><path d="M 26.03125 -37.433594 C 24.636719 -35.46875 22.085938 -31.269531 19.667969 -30.496094 C 14.296875 -28.792969 13.496094 -40.351562 12.515625 -43.113281 C 12.140625 -44.113281 10.84375 -44.394531 10.152344 -43.621094 C 6.539062 -39.585938 4.867188 -34.539062 1.851562 -30.152344 C 1.167969 -29.1875 0.851562 -27.953125 0.117188 -28.554688 C -0.253906 -28.851562 0.113281 -33.21875 0.152344 -33.671875 C 0.207031 -36.199219 0.421875 -38.671875 0.695312 -41.179688 C 1.332031 -41.246094 1.882812 -41.726562 1.738281 -42.546875 C 1.589844 -43.5625 1.40625 -44.542969 1.253906 -45.558594 C 1.015625 -46.984375 -1.28125 -47.464844 -1.539062 -45.789062 C -2.226562 -40.859375 -2.65625 -35.945312 -2.703125 -30.953125 C -2.726562 -29.097656 -3.066406 -25.4375 -0.421875 -24.976562 C 1.742188 -24.582031 3.320312 -27.292969 4.261719 -28.71875 C 6.628906 -32.207031 8.167969 -36.125 10.535156 -39.582031 C 11.535156 -34.777344 12.195312 -28.039062 17.261719 -27.199219 C 21.84375 -26.429688 25.859375 -32.40625 28.117188 -35.566406 C 29.152344 -37.03125 27.101562 -38.898438 26.03125 -37.433594 Z M 26.03125 -37.433594 "/></g></g></g><g fill="#2b2b2b" fill-opacity="1"><g transform="translate(239.006019, 178.86163)"><g><path d="M 6.640625 0 L 5.90625 -2.109375 L 2.765625 -2.109375 L 2.03125 0 L 0.296875 0 L 3.3125 -8.25 L 5.34375 -8.25 L 8.34375 0 Z M 4.328125 -6.984375 L 4.296875 -6.859375 C 4.253906 -6.710938 4.207031 -6.550781 4.15625 -6.375 C 4.101562 -6.195312 3.765625 -5.207031 3.140625 -3.40625 L 5.515625 -3.40625 L 4.703125 -5.78125 L 4.453125 -6.578125 Z M 4.328125 -6.984375 "/></g></g><g transform="translate(247.672034, 178.86163)"><g><path d="M 0.796875 0 L 0.796875 -8.25 L 2.53125 -8.25 L 2.53125 0 Z M 0.796875 0 "/></g></g><g transform="translate(251.006018, 178.86163)"><g/></g><g transform="translate(254.340003, 178.86163)"><g><path d="M 0.53125 -2.25 C 0.53125 -2.78125 0.6875 -3.25 1 -3.65625 C 1.320312 -4.070312 1.828125 -4.441406 2.515625 -4.765625 C 2.222656 -5.347656 2.078125 -5.894531 2.078125 -6.40625 C 2.078125 -7.007812 2.265625 -7.472656 2.640625 -7.796875 C 3.023438 -8.128906 3.570312 -8.296875 4.28125 -8.296875 C 4.9375 -8.296875 5.453125 -8.140625 5.828125 -7.828125 C 6.210938 -7.515625 6.40625 -7.09375 6.40625 -6.5625 C 6.40625 -6.257812 6.328125 -5.988281 6.171875 -5.75 C 6.023438 -5.507812 5.8125 -5.285156 5.53125 -5.078125 C 5.25 -4.867188 4.773438 -4.609375 4.109375 -4.296875 C 4.492188 -3.609375 4.972656 -2.953125 5.546875 -2.328125 C 5.953125 -2.941406 6.257812 -3.648438 6.46875 -4.453125 L 7.6875 -4.046875 C 7.425781 -3.128906 7.050781 -2.304688 6.5625 -1.578125 C 6.894531 -1.296875 7.242188 -1.15625 7.609375 -1.15625 C 7.859375 -1.15625 8.085938 -1.1875 8.296875 -1.25 L 8.296875 -0.0625 C 8.078125 0.03125 7.820312 0.078125 7.53125 0.078125 C 7.1875 0.078125 6.84375 0.015625 6.5 -0.109375 C 6.164062 -0.234375 5.863281 -0.410156 5.59375 -0.640625 C 4.925781 -0.128906 4.1875 0.125 3.375 0.125 C 2.46875 0.125 1.765625 -0.0820312 1.265625 -0.5 C 0.773438 -0.914062 0.53125 -1.5 0.53125 -2.25 Z M 5.09375 -6.546875 C 5.09375 -6.773438 5.019531 -6.957031 4.875 -7.09375 C 4.726562 -7.238281 4.523438 -7.3125 4.265625 -7.3125 C 3.972656 -7.3125 3.742188 -7.222656 3.578125 -7.046875 C 3.421875 -6.878906 3.34375 -6.660156 3.34375 -6.390625 C 3.34375 -6.046875 3.445312 -5.664062 3.65625 -5.25 C 4.070312 -5.425781 4.367188 -5.578125 4.546875 -5.703125 C 4.722656 -5.828125 4.859375 -5.957031 4.953125 -6.09375 C 5.046875 -6.226562 5.09375 -6.378906 5.09375 -6.546875 Z M 4.625 -1.4375 C 3.96875 -2.164062 3.4375 -2.90625 3.03125 -3.65625 C 2.351562 -3.332031 2.015625 -2.875 2.015625 -2.28125 C 2.015625 -1.894531 2.140625 -1.582031 2.390625 -1.34375 C 2.648438 -1.113281 3 -1 3.4375 -1 C 3.6875 -1 3.914062 -1.046875 4.125 -1.140625 C 4.332031 -1.234375 4.5 -1.332031 4.625 -1.4375 Z M 4.625 -1.4375 "/></g></g><g transform="translate(263.006018, 178.86163)"><g/></g><g transform="translate(266.340002, 178.86163)"><g><path d="M 0.796875 0 L 0.796875 -8.25 L 2.53125 -8.25 L 2.53125 -1.34375 L 6.96875 -1.34375 L 6.96875 0 Z M 0.796875 0 "/></g></g><g transform="translate(273.670079, 178.86163)"><g><path d="M 0.796875 0 L 0.796875 -8.25 L 2.53125 -8.25 L 2.53125 -1.34375 L 6.96875 -1.34375 L 6.96875 0 Z M 0.796875 0 "/></g></g><g transform="translate(281.000157, 178.86163)"><g><path d="M 7.65625 0 L 7.65625 -5 C 7.65625 -5.113281 7.65625 -5.226562 7.65625 -5.34375 C 7.664062 -5.457031 7.6875 -5.941406 7.71875 -6.796875 C 7.4375 -5.753906 7.234375 -5.023438 7.109375 -4.609375 L 5.609375 0 L 4.390625 0 L 2.890625 -4.609375 L 2.265625 -6.796875 C 2.316406 -5.890625 2.34375 -5.289062 2.34375 -5 L 2.34375 0 L 0.796875 0 L 0.796875 -8.25 L 3.125 -8.25 L 4.59375 -3.640625 L 4.71875 -3.1875 L 5 -2.09375 L 5.375 -3.40625 L 6.890625 -8.25 L 9.1875 -8.25 L 9.1875 0 Z M 7.65625 0 "/></g></g></g><g fill="#2b2b2b" fill-opacity="1"><g transform="translate(239.006019, 192.361629)"><g><path d="M 7.59375 -5.640625 C 7.59375 -5.109375 7.472656 -4.632812 7.234375 -4.21875 C 6.992188 -3.800781 6.644531 -3.476562 6.1875 -3.25 C 5.738281 -3.019531 5.203125 -2.90625 4.578125 -2.90625 L 2.53125 -2.90625 L 2.53125 0 L 0.796875 0 L 0.796875 -8.25 L 4.515625 -8.25 C 5.503906 -8.25 6.265625 -8.019531 6.796875 -7.5625 C 7.328125 -7.113281 7.59375 -6.472656 7.59375 -5.640625 Z M 5.859375 -5.609375 C 5.859375 -6.484375 5.34375 -6.921875 4.3125 -6.921875 L 2.53125 -6.921875 L 2.53125 -4.234375 L 4.359375 -4.234375 C 4.835938 -4.234375 5.207031 -4.351562 5.46875 -4.59375 C 5.726562 -4.832031 5.859375 -5.171875 5.859375 -5.609375 Z M 5.859375 -5.609375 "/></g></g><g transform="translate(247.009925, 192.361629)"><g><path d="M 6.46875 0 L 4.5625 -3.140625 L 2.53125 -3.140625 L 2.53125 0 L 0.796875 0 L 0.796875 -8.25 L 4.921875 -8.25 C 5.910156 -8.25 6.671875 -8.035156 7.203125 -7.609375 C 7.742188 -7.191406 8.015625 -6.585938 8.015625 -5.796875 C 8.015625 -5.210938 7.847656 -4.710938 7.515625 -4.296875 C 7.191406 -3.878906 6.75 -3.601562 6.1875 -3.46875 L 8.421875 0 Z M 6.265625 -5.71875 C 6.265625 -6.519531 5.757812 -6.921875 4.75 -6.921875 L 2.53125 -6.921875 L 2.53125 -4.484375 L 4.796875 -4.484375 C 5.273438 -4.484375 5.640625 -4.59375 5.890625 -4.8125 C 6.140625 -5.03125 6.265625 -5.332031 6.265625 -5.71875 Z M 6.265625 -5.71875 "/></g></g><g transform="translate(255.67594, 192.361629)"><g><path d="M 8.828125 -4.171875 C 8.828125 -3.304688 8.65625 -2.546875 8.3125 -1.890625 C 7.976562 -1.242188 7.492188 -0.742188 6.859375 -0.390625 C 6.222656 -0.046875 5.484375 0.125 4.640625 0.125 C 3.347656 0.125 2.332031 -0.253906 1.59375 -1.015625 C 0.863281 -1.785156 0.5 -2.835938 0.5 -4.171875 C 0.5 -5.492188 0.863281 -6.523438 1.59375 -7.265625 C 2.332031 -8.003906 3.351562 -8.375 4.65625 -8.375 C 5.96875 -8.375 6.988281 -8 7.71875 -7.25 C 8.457031 -6.5 8.828125 -5.472656 8.828125 -4.171875 Z M 7.0625 -4.171875 C 7.0625 -5.054688 6.847656 -5.75 6.421875 -6.25 C 6.003906 -6.757812 5.414062 -7.015625 4.65625 -7.015625 C 3.882812 -7.015625 3.285156 -6.765625 2.859375 -6.265625 C 2.441406 -5.765625 2.234375 -5.066406 2.234375 -4.171875 C 2.234375 -3.265625 2.445312 -2.550781 2.875 -2.03125 C 3.3125 -1.507812 3.898438 -1.25 4.640625 -1.25 C 5.421875 -1.25 6.019531 -1.5 6.4375 -2 C 6.851562 -2.507812 7.0625 -3.234375 7.0625 -4.171875 Z M 7.0625 -4.171875 "/></g></g><g transform="translate(265.009924, 192.361629)"><g><path d="M 4.71875 -1.234375 C 5.164062 -1.234375 5.597656 -1.296875 6.015625 -1.421875 C 6.441406 -1.554688 6.773438 -1.726562 7.015625 -1.9375 L 7.015625 -3.078125 L 5 -3.078125 L 5 -4.359375 L 8.59375 -4.359375 L 8.59375 -1.3125 C 8.15625 -0.863281 7.582031 -0.507812 6.875 -0.25 C 6.175781 0 5.441406 0.125 4.671875 0.125 C 3.328125 0.125 2.296875 -0.242188 1.578125 -0.984375 C 0.859375 -1.734375 0.5 -2.796875 0.5 -4.171875 C 0.5 -5.523438 0.859375 -6.5625 1.578125 -7.28125 C 2.304688 -8.007812 3.351562 -8.375 4.71875 -8.375 C 6.65625 -8.375 7.890625 -7.660156 8.421875 -6.234375 L 6.828125 -5.75 C 6.648438 -6.164062 6.378906 -6.476562 6.015625 -6.6875 C 5.648438 -6.90625 5.21875 -7.015625 4.71875 -7.015625 C 3.90625 -7.015625 3.285156 -6.769531 2.859375 -6.28125 C 2.441406 -5.789062 2.234375 -5.085938 2.234375 -4.171875 C 2.234375 -3.234375 2.453125 -2.507812 2.890625 -2 C 3.328125 -1.488281 3.9375 -1.234375 4.71875 -1.234375 Z M 4.71875 -1.234375 "/></g></g><g transform="translate(274.343908, 192.361629)"><g><path d="M 6.46875 0 L 4.5625 -3.140625 L 2.53125 -3.140625 L 2.53125 0 L 0.796875 0 L 0.796875 -8.25 L 4.921875 -8.25 C 5.910156 -8.25 6.671875 -8.035156 7.203125 -7.609375 C 7.742188 -7.191406 8.015625 -6.585938 8.015625 -5.796875 C 8.015625 -5.210938 7.847656 -4.710938 7.515625 -4.296875 C 7.191406 -3.878906 6.75 -3.601562 6.1875 -3.46875 L 8.421875 0 Z M 6.265625 -5.71875 C 6.265625 -6.519531 5.757812 -6.921875 4.75 -6.921875 L 2.53125 -6.921875 L 2.53125 -4.484375 L 4.796875 -4.484375 C 5.273438 -4.484375 5.640625 -4.59375 5.890625 -4.8125 C 6.140625 -5.03125 6.265625 -5.332031 6.265625 -5.71875 Z M 6.265625 -5.71875 "/></g></g><g transform="translate(283.009923, 192.361629)"><g><path d="M 6.640625 0 L 5.90625 -2.109375 L 2.765625 -2.109375 L 2.03125 0 L 0.296875 0 L 3.3125 -8.25 L 5.34375 -8.25 L 8.34375 0 Z M 4.328125 -6.984375 L 4.296875 -6.859375 C 4.253906 -6.710938 4.207031 -6.550781 4.15625 -6.375 C 4.101562 -6.195312 3.765625 -5.207031 3.140625 -3.40625 L 5.515625 -3.40625 L 4.703125 -5.78125 L 4.453125 -6.578125 Z M 4.328125 -6.984375 "/></g></g><g transform="translate(291.675938, 192.361629)"><g><path d="M 7.65625 0 L 7.65625 -5 C 7.65625 -5.113281 7.65625 -5.226562 7.65625 -5.34375 C 7.664062 -5.457031 7.6875 -5.941406 7.71875 -6.796875 C 7.4375 -5.753906 7.234375 -5.023438 7.109375 -4.609375 L 5.609375 0 L 4.390625 0 L 2.890625 -4.609375 L 2.265625 -6.796875 C 2.316406 -5.890625 2.34375 -5.289062 2.34375 -5 L 2.34375 0 L 0.796875 0 L 0.796875 -8.25 L 3.125 -8.25 L 4.59375 -3.640625 L 4.71875 -3.1875 L 5 -2.09375 L 5.375 -3.40625 L 6.890625 -8.25 L 9.1875 -8.25 L 9.1875 0 Z M 7.65625 0 "/></g></g><g transform="translate(301.672031, 192.361629)"><g><path d="M 7.65625 0 L 7.65625 -5 C 7.65625 -5.113281 7.65625 -5.226562 7.65625 -5.34375 C 7.664062 -5.457031 7.6875 -5.941406 7.71875 -6.796875 C 7.4375 -5.753906 7.234375 -5.023438 7.109375 -4.609375 L 5.609375 0 L 4.390625 0 L 2.890625 -4.609375 L 2.265625 -6.796875 C 2.316406 -5.890625 2.34375 -5.289062 2.34375 -5 L 2.34375 0 L 0.796875 0 L 0.796875 -8.25 L 3.125 -8.25 L 4.59375 -3.640625 L 4.71875 -3.1875 L 5 -2.09375 L 5.375 -3.40625 L 6.890625 -8.25 L 9.1875 -8.25 L 9.1875 0 Z M 7.65625 0 "/></g></g><g transform="translate(311.668124, 192.361629)"><g><path d="M 0.796875 0 L 0.796875 -8.25 L 7.296875 -8.25 L 7.296875 -6.921875 L 2.53125 -6.921875 L 2.53125 -4.84375 L 6.9375 -4.84375 L 6.9375 -3.515625 L 2.53125 -3.515625 L 2.53125 -1.34375 L 7.53125 -1.34375 L 7.53125 0 Z M 0.796875 0 "/></g></g><g transform="translate(319.67203, 192.361629)"><g><path d="M 6.46875 0 L 4.5625 -3.140625 L 2.53125 -3.140625 L 2.53125 0 L 0.796875 0 L 0.796875 -8.25 L 4.921875 -8.25 C 5.910156 -8.25 6.671875 -8.035156 7.203125 -7.609375 C 7.742188 -7.191406 8.015625 -6.585938 8.015625 -5.796875 C 8.015625 -5.210938 7.847656 -4.710938 7.515625 -4.296875 C 7.191406 -3.878906 6.75 -3.601562 6.1875 -3.46875 L 8.421875 0 Z M 6.265625 -5.71875 C 6.265625 -6.519531 5.757812 -6.921875 4.75 -6.921875 L 2.53125 -6.921875 L 2.53125 -4.484375 L 4.796875 -4.484375 C 5.273438 -4.484375 5.640625 -4.59375 5.890625 -4.8125 C 6.140625 -5.03125 6.265625 -5.332031 6.265625 -5.71875 Z M 6.265625 -5.71875 "/></g></g></g></svg>